<?xml version="1.0" encoding="utf-8"?>
<!-- Generator: Adobe Illustrator 27.1.1, SVG Export Plug-In . SVG Version: 6.00 Build 0)  -->
<svg version="1.1" id="Capa_1" xmlns="http://www.w3.org/2000/svg" xmlns:xlink="http://www.w3.org/1999/xlink" x="0px" y="0px"
	 viewBox="0 0 513.23 209.63" style="enable-background:new 0 0 513.23 209.63;" xml:space="preserve">
<style type="text/css">
	.st0{fill:#FFFFFF;}
</style>
<polygon class="st0" points="507.02,2.52 507.02,206.15 453.05,206.15 397.15,128.04 397.15,206.15 333.62,206.15 333.62,2.52 
	386.72,2.52 442.92,80.93 442.92,2.52 "/>
<g>
	<path class="st0" d="M276.51,2.52l-8.74,5.43l-0.05,0.04l-40.6,24.73l21.82,56.8l11.24-7.91l0.08,0.21v70.13l-21.07-55.57
		L217.31,38.7L203.6,2.52h-48.75l-1.25,3.29l-9.08,25.02l-15.26,42.05c-0.97,2.67-3.94,4.06-6.61,3.09l-1.92-0.7
		c-2.68-0.97-4.06-3.93-3.09-6.6l17.46-48.1c-5.42-4.71-11.52-8.29-18.29-10.75c-13.62-4.87-30.31-7.31-50.09-7.31H2.61v203.64h64.1
		v-48.9c11.37-0.15,21.43-0.89,30.2-2.26l-19.43,51.15h64.1l6.86-18.34H210l6.71,18.34h104.55V2.52H276.51z M66.71,102.4V57.53
		c17.9,0.3,26.84,7.8,26.84,22.51C93.55,94.65,84.61,102.1,66.71,102.4z M165.43,142.95l13.72-35.78l13.86,35.78H165.43z"/>
</g>
</svg>
