<?xml version="1.0" encoding="utf-8"?>
<!-- Generator: Adobe Illustrator 27.1.1, SVG Export Plug-In . SVG Version: 6.00 Build 0)  -->
<svg version="1.1" id="Capa_1" xmlns="http://www.w3.org/2000/svg" xmlns:xlink="http://www.w3.org/1999/xlink" x="0px" y="0px"
	 viewBox="0 0 841.89 595.28" style="enable-background:new 0 0 841.89 595.28;" xml:space="preserve">
<style type="text/css">
	.st0{fill:#FFFFFF;}
</style>
<path class="st0" d="M550.37,220.62c0.43,14.96,1.01,27.34,1.05,39.75c0.01,4.07-1.49,6.88-4.38,9.33
	c-6.65,5.62-14.45,8.38-22.94,9.91c-40.01,7.21-80.34,9.18-120.89,7.74c-29.08-1.03-58.02-3.84-86.91-7.12
	c-11.48-1.3-22.05-5.4-31.15-12.79c-2.95-2.39-4.5-5.04-4.2-9.22c1.74-23.83,1.47-47.74,2.31-71.61c0.17-4.83,0.75-9.66,1.39-14.46
	c0.65-4.82,5.46-8.91,11.27-9.68c6.14-0.81,12.33-1.05,18.43-2.32c3.74-0.78,7.17-1.9,9.82-4.75c2.08-2.23,4.71-2.87,7.63-2.94
	c49.48-1.22,98.94-3.36,148.45-2.08c9.69,0.25,19.38,0.65,29,1.98c0.99,0.14,2.22,0.11,2.91,0.68c5.49,4.54,12.01,4.09,18.39,3.74
	c6.55-0.36,11.37,2.97,16.16,6.6c1.23,0.93,0.98,2.44,1.09,3.77C549.45,185.79,549.6,204.51,550.37,220.62z"/>
<path class="st0" d="M265.66,147.96c0-3.83,0.02-7.66,0-11.5c-0.03-5.24,1.63-7.72,6.6-9.62c14.41-5.5,28.84-10.93,43.23-16.49
	c7.87-3.04,15.33-7.06,23.38-9.69c6.28-2.05,12.38-2.49,18.88-0.82c31.91,8.17,64.19,8.48,96.65,4.05
	c11.05-1.51,22.06-3.21,32.89-5.93c3.3-0.83,6.5,0.33,9.55,1.5c9.47,3.61,17.98,8.79,25.33,15.83c3.56,3.42,7.8,5.56,12.6,6.87
	c10.17,2.8,20.68,4.51,30.11,9.73c2.96,1.64,4.38,3.61,4.15,6.95c-0.47,6.74-0.8,13.5-1.28,20.24c-0.15,2.13-0.11,4.02,1.81,5.44
	c0.84,0.62,1.35,1.7,1.24,2.68c-0.61,5.03-0.17,10.61-5.91,13.34c-2.75,1.31-3.16,3.62-2.91,6.19c0.22,2.31-0.82,3.23-2.91,2.8
	c-1.95-0.41-4.99,1.24-5.15-2.91c-0.31-7.76-1.02-15.51-1.44-23.27c-0.12-2.3-0.87-3.99-2.75-5.44c-6.32-4.89-12.97-8.32-21.39-7.56
	c-4.89,0.44-9.62-0.01-14.09-3.28c-3.07-2.24-7.6-1.67-11.51-1.96c-31.98-2.37-64.01-1.66-96.02-1.1
	c-24.57,0.43-49.14,1.38-73.71,1.99c-4.78,0.12-8.99,0.99-12.61,4.53c-4.36,4.26-10.44,3.62-15.89,4.62
	c-3.87,0.71-7.89,0.32-11.73,1.37c-7.44,2.02-12.13,7.4-13.06,15.02c-0.41,3.35-0.71,6.72-1.13,10.07
	c-0.12,0.99,0.44,2.46-1.34,2.59c-1.39,0.11-2.73,0-3.55-1.39c-0.06-0.1-0.17-0.19-0.18-0.29c-0.38-4.65-3.65-7.93-5.5-11.86
	c-1.99-4.22-2.15-9.17-2.25-13.91c-0.06-2.93-0.01-5.86-0.01-8.79C265.73,147.96,265.7,147.96,265.66,147.96z"/>
<path class="st0" d="M520.62,105.4c-3.19-2.04-5.57-3.52-7.92-5.05c-11.4-7.47-23.11-10.93-37.04-6.66
	c-11.25,3.45-23.25,4.14-35.01,5.39c-2.51,0.27-3.32-0.3-3.26-2.95c0.18-7.88,0.09-15.78,0.06-23.66
	c-0.03-6.66-3.53-10.15-10.25-10.2c-6.09-0.05-12.18-0.04-18.26,0c-7.05,0.04-10.46,3.52-10.49,10.69
	c-0.03,7.66-0.21,15.33,0.08,22.99c0.14,3.57-1.14,4-4.24,3.69c-12.24-1.24-24.36-3.18-36.26-6.25c-6.72-1.73-13.1-1.29-19.59,0.78
	c-5.98,1.9-11.72,4.41-17.76,6.93c0.15-2.6,1.08-4.65,1.84-6.71c11.78-31.8,32.55-54.37,66.35-62.53
	c25.89-6.26,51.58-4.32,76.24,5.86c27.08,11.18,43.51,32.26,52.91,59.39C518.85,99.51,519.55,101.98,520.62,105.4z"/>
<path class="st0" d="M1.71,353.67c0.08-13.97,0.28-27.94,0.85-41.9c0.33-7.93,1.61-15.67,4.3-23.15c0.92-2.56,2.26-4.91,3.82-7.13
	c2.56-3.64,6.01-5.38,10.46-4.63c5.55,0.93,11.18,1.62,16.6,3.07c6.09,1.62,9.97,6.08,11.84,11.98c2.32,7.32,3.88,14.83,3.71,22.56
	c-0.62,28.95-1.28,57.89-1.03,86.85c0.02,1.93-0.41,2.91-2.61,2.82c-3.6-0.14-7.22-0.15-10.82,0c-2.22,0.1-2.6-0.89-2.58-2.82
	c0.08-9.35-0.01-18.7,0.11-28.05c0.03-2.55-0.64-3.69-3.41-3.55c-3.82,0.2-7.67,0.18-11.49-0.04c-3.18-0.18-4.07,1.1-4.02,4.15
	c0.15,9.01-0.05,18.02,0.07,27.04c0.03,2.49-0.64,3.44-3.22,3.27c-3.14-0.21-6.32-0.22-9.46,0c-2.53,0.18-3.21-0.62-3.19-3.17
	C1.77,385.21,1.71,369.44,1.71,353.67z M18.71,330.1c-0.28,0-0.56,0-0.84,0c0,5.75,0.1,11.5-0.05,17.24
	c-0.06,2.36,0.81,3.28,3.1,3.28c4.06-0.01,8.13-0.07,12.17,0.2c2.81,0.19,3.46-1,3.47-3.52c0.05-7.32,0.3-14.65,0.47-21.97
	c0.1-4.17,0.31-8.34,0.26-12.5c-0.04-3.1-1.48-5.06-4.95-5.14c-2.47-0.06-4.94-0.46-7.4-0.71c-4.63-0.46-6.01,0.51-6.18,5.22
	C18.54,318.15,18.71,324.13,18.71,330.1z"/>
<path class="st0" d="M80.26,385.89c0,5.19-0.08,10.37,0.04,15.55c0.05,2.1-0.67,2.77-2.72,2.69c-3.38-0.13-6.78-0.21-10.14,0.02
	c-2.66,0.18-3.18-0.89-3.17-3.31c0.11-29.53,0.11-59.06,1.23-88.58c0.29-7.77,0.42-15.55,0.69-23.32c0.13-3.76,0.65-4.03,4.32-3.33
	c8.63,1.63,17.23,3.53,25.93,4.65c8.1,1.04,13.15,5.45,16.16,12.58c2.29,5.43,3.62,11.17,3.51,17.1
	c-0.16,9.01-0.43,18.03-0.84,27.04c-0.29,6.32-2.56,11.92-7.34,16.19c-2.03,1.81-2.29,3.56-1.52,5.97
	c3.42,10.6,6.62,21.27,10.16,31.83c0.98,2.92,0.02,3.24-2.45,3.16c-3.94-0.12-7.89-0.09-11.84-0.01c-1.64,0.03-2.35-0.61-2.81-2.18
	c-3.04-10.37-6.18-20.7-9.31-31.05c-1-3.31-5.92-5.27-8.9-3.58c-1.24,0.7-0.95,1.94-0.96,3.02c-0.03,5.18-0.01,10.37-0.01,15.56
	C80.28,385.89,80.27,385.89,80.26,385.89z M81.45,331.31c-0.28,0-0.56,0-0.83,0c0,4.72,0.08,9.44-0.04,14.16
	c-0.05,2.01,0.66,2.9,2.67,2.97c4.05,0.13,8.09,0.3,12.14,0.55c2.41,0.15,3.75-1.04,3.84-3.25c0.34-8.87,0.59-17.75,0.72-26.63
	c0.04-2.41-1.33-3.94-3.93-4.2c-3.69-0.38-7.4-0.73-11.05-1.37c-2.89-0.51-3.56,0.78-3.53,3.28
	C81.5,321.65,81.45,326.48,81.45,331.31z"/>
<path class="st0" d="M223.55,362.39c1-2.03,0.7-3.27,0.7-4.48c0.01-15.67,0.28-31.33,0.9-46.98c0.12-2.94,0.98-4.07,4.03-3.54
	c2.54,0.44,5.16,0.56,7.75,0.55c3.18-0.01,4.32,1.26,4.18,4.51c-1,22.52-1.02,45.06-1.03,67.6c0,6.99-0.09,13.98,0.03,20.96
	c0.04,2.31-0.6,3.24-3.04,3.12c-3.71-0.18-7.44-0.13-11.16-0.01c-1.85,0.06-2.64-0.56-3.33-2.39c-6.26-16.4-12.61-32.77-18.35-49.37
	c-0.24-0.7-0.2-1.59-1.17-2.11c-0.78,0.97-0.44,2.11-0.44,3.14c-0.05,15.78-0.14,31.56-0.06,47.33c0.01,2.66-0.7,3.59-3.39,3.4
	c-3.25-0.22-6.54-0.17-9.8-0.01c-2.25,0.11-2.89-0.75-2.88-2.93c0.14-27.16-0.08-54.32,0.98-81.47c0.18-4.5,0.4-9.01,0.45-13.52
	c0.02-2.54,0.95-3.4,3.51-2.97c3.89,0.66,7.81,1.16,11.73,1.54c2.11,0.2,3.14,1.08,3.69,3.16c3.45,12.95,7,25.87,11.27,38.58
	C219.82,351.61,221.58,356.68,223.55,362.39z"/>
<path class="st0" d="M763.88,342.34c-0.52-14.57-1.02-27.97-1.45-41.36c-0.17-5.33,0.2-5.64,5.5-6.31c2.68-0.34,5.35-0.73,8.01-1.21
	c2.18-0.39,3.11,0.32,3.1,2.62c-0.03,5.18,0.13,10.36,0.19,15.54c0.25,22.52,0.51,45.05,0.72,67.57c0.04,3.82,0.19,7.61-0.74,11.42
	c-1.68,6.87-8.91,14.04-17.94,13.52c-4.61-0.27-9.25-0.25-13.86-0.01c-12.24,0.64-19.12-9.73-19.16-18.68
	c-0.08-16.79-0.3-33.57-0.69-50.35c-0.24-10.36-0.83-20.71-1.41-31.05c-0.15-2.7,0.61-3.92,3.44-4.05c3.03-0.14,6.06-0.57,9.05-1.11
	c2.44-0.44,3.54,0.16,3.63,2.81c0.5,14.74,1.26,29.48,1.64,44.23c0.32,12.39,0.24,24.78,0.37,37.18c0.04,4.27,0.75,4.98,4.88,5.01
	c3.27,0.03,6.54,0.02,9.81-0.02c4.13-0.05,4.88-0.76,4.89-5.02C763.9,369.1,763.88,355.13,763.88,342.34z"/>
<path class="st0" d="M715.68,358.81c0,8.45,0.05,16.89-0.01,25.34c-0.07,8.9-3.52,15.66-12.24,19.1c-1.08,0.43-2.09,0.78-3.22,0.78
	c-6.87,0.02-13.78,0.48-20.61-0.1c-8.44-0.71-15.39-8.05-15.61-18.25c-0.27-12.83-0.47-25.67-0.72-38.51
	c-0.12-5.96-0.41-11.92-0.79-17.88c-0.6-9.45,2.66-17.21,11.1-22.27c1.47-0.88,3.07-1.41,4.78-1.59c5.6-0.58,11.2-1.18,16.81-1.69
	c6.67-0.6,11.35,2.44,14.89,7.94c3.92,6.08,4.6,12.89,4.77,19.76c0.23,9.11,0.06,18.23,0.06,27.35
	C715.15,358.81,715.41,358.81,715.68,358.81z M699.57,358.47c-0.15,0-0.3,0-0.45,0c0-4.84,0.13-9.68-0.04-14.51
	c-0.2-5.62,0.04-11.26-0.86-16.84c-0.38-2.35-1.19-4.14-4.02-3.96c-3.82,0.24-7.64,0.47-11.46,0.69c-3.11,0.18-4.41,1.85-4.15,4.89
	c0.15,1.79,0.34,3.59,0.38,5.38c0.35,16.54,0.66,33.08,1,49.62c0.08,3.72,0.84,4.46,4.68,4.51c3.26,0.04,6.53,0.03,9.8,0
	c4.38-0.04,5.1-0.73,5.12-5.13C699.6,374.9,699.57,366.68,699.57,358.47z"/>
<path class="st0" d="M354.33,360.07c0-13.51,0.09-27.02-0.07-40.53c-0.03-2.8,0.89-3.45,3.46-3.44c10.37,0.03,20.73,0.45,31.05,1.32
	c9.37,0.8,15.43,7.09,16.07,16.54c0.31,4.6,0.3,9.23,0.38,13.84c0.06,3.32-1.21,6.2-3.4,8.59c-1.47,1.6-1.34,2.75,0.07,4.31
	c2.91,3.23,4.19,7.09,4.08,11.48c-0.11,4.61,0.2,9.24-0.06,13.85c-0.58,10.43-5.98,14.74-13.24,17.69
	c-1.19,0.48-2.67,0.35-4.01,0.35c-10.14,0.03-20.28-0.08-30.41,0.09c-2.86,0.05-3.32-1.06-3.31-3.56
	c0.1-13.51,0.05-27.02,0.05-40.54C354.77,360.07,354.55,360.07,354.33,360.07z M390.03,377.67c-0.03,0-0.05,0-0.08,0
	c0-2.47,0.03-4.94-0.01-7.42c-0.04-2.57-1.35-3.99-3.95-4.04c-4.16-0.07-8.32-0.05-12.48-0.13c-1.7-0.03-2.53,0.68-2.52,2.37
	c0.01,5.84,0.03,11.69,0.04,17.53c0,1.48,0.58,2.3,2.2,2.29c4.38-0.04,8.77,0.02,13.15-0.03c2.46-0.03,3.7-1.32,3.66-3.82
	C390.01,382.17,390.03,379.92,390.03,377.67z M370.77,340.5c0,2.7,0.01,5.4,0,8.11c-0.01,1.79,0.76,2.67,2.65,2.65
	c3.94-0.04,7.88,0.04,11.83,0.08c2.83,0.03,4.12-1.42,4.05-4.19c-0.07-2.81-0.1-5.63-0.19-8.44c-0.24-8.16-0.25-8.16-8.6-8.25
	C370.43,330.33,370.43,330.33,370.77,340.5z"/>
<path class="st0" d="M253.98,364.75c0-11.38,0.02-22.76-0.01-34.13c-0.01-3.55,0.82-6.87,2.06-10.19c2.53-6.77,7.78-9.55,14.49-9.47
	c6.06,0.07,12.16,0.63,18.17,1.51c8.86,1.29,15.18,8.3,15.51,17.46c0.37,10.46,0.18,20.95,0.2,31.43
	c0.02,13.18-0.06,26.36,0.05,39.54c0.02,2.53-0.73,3.41-3.26,3.25c-3.14-0.19-6.32-0.23-9.46,0.01c-2.82,0.22-3.35-0.96-3.31-3.49
	c0.14-8.45-0.09-16.9,0.15-25.35c0.09-3.27-1.1-4.12-4.08-3.98c-3.82,0.17-7.66,0.12-11.49-0.01c-2.48-0.08-3.37,0.88-3.35,3.37
	c0.1,8.67-0.07,17.35,0.09,26.02c0.05,2.66-0.69,3.63-3.41,3.44c-3.14-0.22-6.32-0.22-9.46,0c-2.58,0.18-3.24-0.73-3.21-3.24
	c0.12-12.05,0.06-24.11,0.06-36.16C253.79,364.75,253.88,364.75,253.98,364.75z M288.52,342.07c0.03,0,0.05,0,0.08,0
	c0-3.38-0.08-6.76,0.02-10.14c0.09-2.82-1.19-4.18-3.96-4.31c-3.38-0.16-6.76-0.27-10.12-0.61c-3.2-0.32-4.66,1.02-4.68,4.15
	c-0.04,7.1-0.06,14.19-0.15,21.29c-0.02,1.92,0.62,2.96,2.7,2.96c4.51-0.02,9.02,0.02,13.52,0.11c1.89,0.04,2.62-0.79,2.6-2.63
	C288.48,349.28,288.52,345.67,288.52,342.07z"/>
<path class="st0" d="M591.25,368.3c0,10.82-0.09,21.63,0.06,32.45c0.04,2.76-0.89,3.54-3.5,3.39c-3.26-0.18-6.54-0.17-9.8,0
	c-2.3,0.12-2.83-0.79-2.81-2.95c0.06-8.56-0.14-17.13-0.06-25.69c0.03-2.89-0.92-4.08-3.92-3.91c-3.71,0.22-7.44,0.2-11.15,0.06
	c-2.86-0.11-3.7,1.1-3.65,3.82c0.15,8.45,0.02,16.9,0.17,25.35c0.04,2.45-0.59,3.49-3.2,3.32c-3.14-0.2-6.32-0.19-9.46,0
	c-2.6,0.16-3.51-0.61-3.48-3.36c0.2-19.04-0.17-38.08-0.76-57.12c-0.1-3.15-0.06-6.29-0.52-9.44c-1.41-9.69,5.29-18.25,15.12-19.19
	c5.6-0.54,11.24-0.87,16.87-1.01c8.84-0.22,16.41,6.08,17.94,14.81c1.87,10.71,1.13,21.58,1.79,32.37c0.14,2.36,0.02,4.73,0.02,7.1
	C591.01,368.3,591.13,368.3,591.25,368.3z M555.67,342.92c0.1,0,0.2,0,0.3,0c0,3.38,0.05,6.75-0.02,10.13
	c-0.04,2.17,0.93,3.02,3.06,2.98c4.39-0.08,8.79-0.08,13.18-0.03c1.68,0.02,2.56-0.57,2.45-2.34c-0.41-6.85,0.03-13.74-0.92-20.57
	c-0.36-2.59-1.66-3.82-4.25-3.73c-3.6,0.12-7.2,0.26-10.81,0.34c-2.76,0.06-3.78,1.45-3.54,4.12
	C555.39,336.85,555.49,339.89,555.67,342.92z"/>
<path class="st0" d="M436.45,318.13c6.61,0.07,13.29-1.42,19.85,0.52c7.62,2.26,12.29,8.11,12.62,16.06
	c0.21,5.18,0.46,10.36,0.5,15.55c0.06,6.39-1.74,12.04-7.22,15.93c-1.98,1.41-1.37,2.99-0.76,4.78c3.38,9.92,6.6,19.89,10.1,29.76
	c1.05,2.97,0.09,3.5-2.59,3.41c-3.72-0.13-7.44-0.09-11.16-0.01c-1.8,0.04-2.78-0.41-3.38-2.36c-2.93-9.47-6.06-18.87-9.14-28.29
	c-1.24-3.8-5.05-5.61-8.72-4.14c-1.7,0.68-1.27,2.22-1.27,3.5c0,9.24-0.06,18.49,0.14,27.73c0.06,2.83-0.75,3.8-3.58,3.59
	c-3.14-0.23-6.32-0.17-9.47-0.01c-2.32,0.11-3.19-0.64-3.13-3.05c0.15-5.63,0.06-11.27,0.03-16.91
	c-0.12-20.63-0.27-41.26-1.51-61.86c-0.19-3.08,0.61-4.35,3.83-4.24C426.52,318.26,431.49,318.13,436.45,318.13z M434.26,342.41
	c0.2,0,0.4,0,0.6,0c0,3.03,0.01,6.07,0,9.1c-0.01,1.81,0.85,2.66,2.69,2.63c4.05-0.06,8.1-0.06,12.15-0.08
	c2.5-0.01,3.78-1.3,3.74-3.75c-0.08-5.17-0.24-10.34-0.38-15.51c-0.07-2.59-1.33-3.92-4.01-3.86c-4.05,0.1-8.1,0.2-12.15,0.16
	c-2.09-0.02-2.74,0.9-2.67,2.88C434.34,336.79,434.26,339.61,434.26,342.41z"/>
<path class="st0" d="M157.18,404.1c-3.61,0-7.22-0.14-10.82,0.03c-11.45,0.55-18.41-9.03-18.54-17.46
	c-0.36-22.87-0.29-45.74,1.26-68.58c0.34-4.96,2.15-9.65,4.57-14.04c2.91-5.28,7.58-7.25,13.32-6.59
	c8.73,1.01,17.42,2.35,26.14,3.39c2.25,0.27,2.8,1.36,2.73,3.35c-0.16,4.5-0.31,9.01-0.3,13.51c0.01,2.39-0.96,3.22-3.28,3
	c-7.41-0.68-14.82-1.3-22.23-1.9c-3.98-0.32-5.11,0.55-5.32,4.59c-0.36,6.75-0.43,13.51-0.77,20.26c-0.13,2.56,0.94,3.4,3.33,3.45
	c7.55,0.15,15.1,0.5,22.64,0.57c2.7,0.03,3.57,1.09,3.42,3.67c-0.2,3.37-0.25,6.76-0.15,10.13c0.08,2.55-0.96,3.33-3.41,3.26
	c-7.43-0.22-14.88-0.17-22.31-0.45c-3.01-0.11-3.97,1-3.88,3.91c0.16,5.06-0.02,10.14,0.04,15.21c0.05,3.78,0.87,4.56,4.61,4.59
	c7.55,0.05,15.1,0.13,22.65,0.02c2.64-0.04,3.66,0.88,3.52,3.54c-0.16,3.15-0.17,6.31-0.01,9.46c0.12,2.32-0.6,3.2-3.03,3.11
	C166.65,403.98,161.92,404.1,157.18,404.1z"/>
<path class="st0" d="M619.28,385.24c0,5.3-0.12,10.6,0.05,15.89c0.08,2.47-0.88,3.1-3.14,3c-3.26-0.14-6.55-0.18-9.8,0.01
	c-2.56,0.15-3.23-0.81-3.25-3.3c-0.12-17.13-0.37-34.26-0.61-51.39c-0.16-11.16-1.08-22.28-2.25-33.38
	c-0.32-3.01,0.48-4.1,3.52-4.03c2.92,0.07,5.87-0.17,8.77-0.54c2.47-0.32,3.5,0.53,3.7,3c0.88,10.55,2.04,21.1,2.01,31.7
	c-0.01,3.17,1.01,4.36,4.07,3.94c0.66-0.09,1.35-0.02,2.03-0.02c4.67-0.05,5.27-0.26,5.97-4.99c1.49-10.02,2.75-20.08,3.89-30.15
	c0.56-4.98,0.52-5.14,5.56-5.54c2.58-0.21,5.17-0.49,7.72-0.93c2.73-0.47,3.78,0.44,3.41,3.24c-1.27,9.49-2.39,19-3.73,28.48
	c-0.77,5.46-1.5,10.98-5.23,15.48c-0.67,0.81-0.5,1.76,0.3,2.42c7.13,5.81,7.42,14.34,8.86,22.37c1.22,6.76,2.03,13.6,3.29,20.35
	c0.51,2.73-0.35,3.39-2.87,3.29c-3.38-0.14-6.77-0.14-10.14,0c-2.16,0.09-2.83-0.73-3.15-2.84c-1.56-10.25-3.39-20.45-4.98-30.69
	c-0.53-3.44-2.25-4.82-5.69-4.74c-10.15,0.26-8.53-1.29-8.5,8.56c0.01,3.61,0,7.21,0,10.82
	C619.14,385.24,619.21,385.24,619.28,385.24z"/>
<path class="st0" d="M804.76,360.03c0-13.52,0.02-27.04-0.01-40.57c-0.01-4.13-0.37-4.42-4.55-4.05c-3.59,0.31-7.18,0.67-10.77,1.09
	c-2.19,0.26-3.17-0.67-3.2-2.81c-0.07-6.31-0.16-12.62-0.23-18.93c-0.02-1.69,0.65-2.71,2.49-2.97c12.71-1.79,25.41-3.65,38.11-5.47
	c3.46-0.5,6.93-0.88,10.36-1.49c2.36-0.42,3.02,0.53,2.98,2.7c-0.12,6.99-0.16,13.97-0.2,20.96c-0.01,2.21-1.04,3.27-3.25,3.44
	c-3.82,0.3-7.63,0.84-11.45,1.02c-2.87,0.14-3.95,1.41-3.92,4.22c0.11,8.11,0.11,16.23,0.11,24.34c-0.01,19.61-0.11,39.22,0,58.83
	c0.02,2.94-0.7,4.08-3.75,3.81c-2.91-0.26-5.88-0.26-8.79,0c-3.14,0.28-3.73-1.04-3.7-3.89c0.13-13.41,0.06-26.82,0.06-40.24
	C804.96,360.03,804.86,360.03,804.76,360.03z"/>
<path class="st0" d="M449.94,454.55c0-3.12,0-6.14,0-9.15c0.01-8.9,0.1-17.81-0.03-26.71c-0.04-2.55,0.79-3.49,3.3-3.21
	c3.2,0.36,7.29-1.38,9.4,0.81c1.95,2.03,0.57,6.03,0.57,9.16c-0.02,20.85-0.12,41.69-0.21,62.54c-0.02,4.78-0.06,4.89-4.63,4.48
	c-11.31-1.02-8.33,0.76-12.1-9.44c-4.22-11.41-8.58-22.76-12.89-34.13c-0.19-0.51-0.51-0.96-0.86-1.6c-1.33,0.91-0.86,2.11-0.86,3.1
	c-0.06,12.28-0.15,24.56-0.06,36.85c0.02,3.04-0.86,4.19-4.05,4.05c-10.64-0.49-9.02,1.2-9.01-9.34
	c0.02-20.96,0.17-41.92,0.12-62.88c-0.01-2.82,0.76-3.82,3.59-3.62c3.7,0.27,8.21-1.05,10.89,0.65c2.49,1.58,3.1,6.2,4.41,9.53
	c3.67,9.32,7.28,18.67,10.91,28C448.58,454.06,448.73,454.49,449.94,454.55z"/>
<path class="st0" d="M481.5,358.77c0-8.44,0.09-16.89-0.03-25.33c-0.13-8.96,5.42-15.5,14.32-15.96c9.34-0.48,18.7-0.48,28.04-0.74
	c1.81-0.05,2.77,0.71,2.92,2.48c0.25,2.8,0.46,5.61,0.69,8.42c0.21,2.53-1.48,2.63-3.3,2.64c-7.32,0.01-14.65,0.02-21.97,0.07
	c-4.33,0.03-4.92,0.69-4.73,4.92c0.18,3.94,0.5,7.88,0.39,11.81c-0.09,3.34,1.29,4.26,4.44,4.16c7.21-0.24,14.42-0.1,21.63-0.33
	c2.84-0.09,3.88,0.97,3.79,3.71c-0.08,2.59-0.09,5.2,0.18,7.76c0.31,2.97-0.8,4.05-3.76,4.01c-6.98-0.1-13.97,0.01-20.96,0.07
	c-4.53,0.04-4.66,0.19-4.63,4.85c0.02,3.94,0.04,7.88,0.09,11.83c0.06,4.49,0.68,5.13,5.07,5.14c7.21,0.02,14.42,0.1,21.63-0.05
	c2.98-0.06,4.4,0.78,4.17,4.02c-0.23,3.14-0.1,6.31-0.02,9.46c0.04,1.73-0.62,2.41-2.36,2.4c-9.8-0.07-19.66,0.55-29.39-0.28
	c-7.89-0.67-14.37-7.28-14.97-17.36c-0.27-4.6-0.17-9.23-0.2-13.85c-0.03-4.62-0.01-9.23-0.01-13.85
	C482.19,358.77,481.84,358.77,481.5,358.77z"/>
<path class="st0" d="M534.71,415.51c3.55,0.26,7.51-0.51,11.3,2.04c4.28,2.87,6.87,6.47,7.37,11.48c0.3,3.02,0.17,6.07,0.24,9.11
	c0.04,1.96-0.8,2.88-2.87,2.77c-2.48-0.12-4.97-0.16-7.44-0.02c-2.18,0.12-2.77-0.93-2.72-2.84c0.05-2.25,0.34-4.57-0.05-6.75
	c-1.05-5.81-5.77-2.42-8.81-3.15c-2.49-0.6-3.4,0.85-3.7,3.43c-0.78,6.75,1.45,11.57,7.68,14.61c2.82,1.38,5.32,3.39,8.02,5.03
	c7.78,4.7,11.25,11.76,11.18,20.64c-0.06,7.78-0.21,15.57-3.07,22.99c-0.74,1.92-1.73,3.67-2.95,5.3c-2.08,2.77-4.79,3.97-8.28,3.29
	c-3.65-0.71-7.29-1.48-10.97-1.97c-8.17-1.11-12.24-6.47-14.58-13.7c-1.99-6.15-1.51-12.48-1.33-18.78c0.05-1.65,0.9-2.49,2.62-2.26
	c0.11,0.01,0.23,0.01,0.34,0.02c11.84,0.71,9.99-1.46,10.01,10.19c0.01,6.21-0.02,6.25,6.27,7.01c8.41,1.01,8.04,0.98,8.66-7.58
	c0.5-6.84-2.18-11.33-7.64-14.97c-4.4-2.93-8.46-6.36-12.68-9.56c-3.1-2.36-5.05-5.44-5.72-9.27c-0.87-4.92-0.81-9.88-0.11-14.81
	c0.88-6.15,7.52-13.06,15.11-12.27C531.81,415.62,533.06,415.51,534.71,415.51z"/>
<path class="st0" d="M274.82,457.2c0-8.34,0.13-16.68-0.04-25.01c-0.15-7.52,3.43-12.58,9.78-16.05c1.36-0.74,2.85-0.61,4.3-0.62
	c6.87-0.04,13.75,0.07,20.62-0.07c2.41-0.05,3.05,0.8,3.06,3.12c0.03,9.42,0.1,9.42-9.38,9.44c-3.94,0.01-7.89,0.06-11.83-0.01
	c-2.45-0.04-3.5,1.14-3.5,3.48c-0.01,4.06,0.04,8.11-0.08,12.17c-0.07,2.35,0.87,3.19,3.21,3.11c5.74-0.18,11.5-0.11,17.24-0.29
	c2.45-0.08,3.57,0.76,3.43,3.29c-0.12,2.25-0.11,4.51-0.03,6.76c0.08,2.58-1.09,3.61-3.65,3.66c-5.63,0.13-11.26,0.51-16.89,0.65
	c-2.33,0.06-3.53,0.77-3.52,3.32c0.01,5.41-0.23,10.81-0.26,16.22c-0.02,3.72,0.8,4.33,4.41,3.96c5.6-0.58,11.22-1,16.82-1.62
	c2.57-0.29,3.53,0.75,3.44,3.2c-0.13,3.72-0.24,7.43-0.27,11.15c-0.02,1.91-0.9,2.86-2.74,3.21c-7.52,1.41-15.02,2.88-22.54,4.31
	c-3.99,0.76-6.46-1.52-8.27-4.54c-3.48-5.79-4.28-12.26-4.32-18.86c-0.04-7.99-0.01-15.99-0.01-23.98
	C274.13,457.2,274.48,457.2,274.82,457.2z"/>
<path class="st0" d="M342.43,465.7c1.49-7.07,2.79-13.42,4.16-19.75c2.03-9.35,4.14-18.69,6.12-28.05c0.37-1.76,1.12-2.49,2.93-2.42
	c2.81,0.1,5.63,0.08,8.45,0.02c2.07-0.04,2.47,0.83,2.01,2.73c-5.26,21.55-9.89,43.24-14.19,65c-0.57,2.87-1.18,5.74-1.65,8.63
	c-0.32,2-1.36,2.87-3.36,3.05c-3.48,0.32-6.95,0.71-10.39,1.3c-2.38,0.41-3.53-0.18-3.86-2.73c-2.28-17.31-5.33-34.49-9.05-51.55
	c-1.7-7.81-3.46-15.6-5.31-23.38c-0.51-2.16-0.22-3.03,2.27-3.09c10.48-0.27,10.53-0.35,12.71,9.99
	c2.56,12.12,5.02,24.26,7.53,36.39C341.02,462.91,340.98,464.09,342.43,465.7z"/>
<path class="st0" d="M371.1,453.25c0-7.21,0.07-14.43-0.02-21.64c-0.09-7.42,3.74-12.28,9.97-15.56c1.02-0.54,2.41-0.5,3.64-0.51
	c7.1-0.05,14.21,0.04,21.31-0.08c2.21-0.04,3.07,0.69,2.93,2.9c-0.14,2.13-0.14,4.29-0.01,6.42c0.14,2.39-0.93,3.19-3.21,3.16
	c-5.86-0.08-11.73,0.07-17.59-0.06c-2.91-0.06-4.11,1.03-3.99,3.97c0.15,3.49,0.17,6.99-0.01,10.48c-0.14,2.62,0.97,3.29,3.39,3.23
	c5.52-0.14,11.05,0.04,16.57-0.13c2.95-0.09,3.98,0.98,3.9,3.94c-0.3,10.12,1.42,8.66-8.78,8.89c-3.83,0.08-7.67,0.27-11.5,0.11
	c-2.88-0.12-3.74,1.05-3.62,3.77c0.16,3.71,0,7.44,0.01,11.15c0.01,4.03,0.37,4.39,4.52,4.33c5.3-0.08,10.61-0.06,15.89-0.39
	c3.35-0.21,4.5,1.04,4.2,4.27c-0.21,2.24-0.11,4.51-0.08,6.76c0.03,1.97-0.86,2.9-2.82,2.95c-7.55,0.17-15.1,0.54-22.65,0.5
	c-5.23-0.03-9.38-4.02-11.13-9.82c-1.2-3.96-1.07-8.01-1.05-12.07c0.02-5.52,0.01-11.04,0.01-16.57
	C371.01,453.25,371.05,453.25,371.1,453.25z"/>
<path class="st0" d="M495.2,462.21c0,9.91,0.02,19.82-0.01,29.73c-0.01,3.9-0.33,4.14-4.07,3.59c-0.89-0.13-1.78-0.27-2.68-0.39
	c-6.48-0.91-6.29,0.32-6.23-7.41c0.16-18.58,0.19-37.16,0.43-55.74c0.04-3.08-0.79-4.33-3.99-4.04c-2.68,0.24-5.4-0.02-8.11,0.05
	c-2.2,0.06-3.02-0.89-2.89-3.06c0.13-2.24,0.13-4.51-0.02-6.75c-0.15-2.1,0.69-2.72,2.72-2.71c12.5,0.06,25.01,0.06,37.52,0
	c1.88-0.01,2.65,0.6,2.58,2.52c-0.42,12.23,2.06,9.82-9.39,10.03c-0.68,0.01-1.36,0.07-2.03-0.01c-2.64-0.32-3.54,0.79-3.51,3.46
	c0.12,10.25,0.05,20.5,0.05,30.74C495.45,462.21,495.32,462.21,495.2,462.21z"/>
</svg>
