<?xml version="1.0" encoding="utf-8"?>
<!-- Generator: Adobe Illustrator 27.1.1, SVG Export Plug-In . SVG Version: 6.00 Build 0)  -->
<svg version="1.1" id="Capa_1" xmlns="http://www.w3.org/2000/svg" xmlns:xlink="http://www.w3.org/1999/xlink" x="0px" y="0px"
	 viewBox="0 0 841.89 595.28" style="enable-background:new 0 0 841.89 595.28;" xml:space="preserve">
<style type="text/css">
	.st0{fill:#FFFFFF;}
</style>
<path class="st0" d="M546.03,214.17c0.41,14.46,0.98,26.43,1.01,38.41c0.01,3.94-1.44,6.65-4.24,9.02
	c-6.43,5.43-13.96,8.1-22.17,9.58c-38.67,6.97-77.64,8.87-116.84,7.48c-28.1-0.99-56.08-3.71-84-6.88
	c-11.09-1.26-21.31-5.22-30.11-12.36c-2.85-2.31-4.35-4.87-4.06-8.91c1.69-23.03,1.42-46.14,2.23-69.2
	c0.16-4.67,0.72-9.34,1.34-13.97c0.62-4.66,5.27-8.61,10.89-9.36c5.93-0.79,11.92-1.01,17.81-2.24c3.61-0.75,6.93-1.84,9.49-4.59
	c2.01-2.15,4.55-2.77,7.37-2.84c47.82-1.18,95.62-3.25,143.47-2.01c9.37,0.24,18.73,0.63,28.02,1.92c0.96,0.13,2.14,0.11,2.81,0.66
	c5.3,4.39,11.61,3.95,17.77,3.62c6.33-0.34,10.99,2.87,15.62,6.38c1.19,0.9,0.94,2.36,1.06,3.64
	C545.13,180.51,545.28,198.6,546.03,214.17z"/>
<path class="st0" d="M541.13,547.41c-0.56-8.45-0.13-16.97-0.13-25.47c0-1.85-0.18-3.57-1.22-5.27c-5.38-8.8-13.22-13.4-23.45-13.43
	c-33.77-0.11-67.54-0.04-101.31-0.04c-33.45,0-66.89,0.09-100.33-0.1c-5.62-0.03-10.55,1.51-15.14,4.26
	c-5.46,3.27-10.11,7.61-10.34,14.47c-0.32,9.68-0.08,19.38-0.08,29.07c0.01,1.77,0.36,3.38,1.32,4.95
	c5.35,8.84,13.23,13.39,23.46,13.4c67.54,0.07,135.08,0,202.62,0.09c5.98,0.01,11.17-1.98,15.81-5.25
	C537.98,560.13,541.63,555.08,541.13,547.41z M330.68,550.91c-5.75,0.01-8.98-2.11-9.52-6.35c-0.19-1.45-0.71-3.55,1.53-3.54
	c2.12,0,4.96-1.52,6.27,1.68c0.36,0.86,0.1,2.08,1.38,2.3c0.32,0.06,0.91-0.24,1.05-0.53c0.56-1.16,0.43-2.33-0.38-3.36
	c-1.76-2.25-4.1-3.88-6.3-5.66c-2.76-2.25-3.9-5.09-3.41-8.64c0.49-3.55,2.46-5.7,6-6.38c2.16-0.42,4.33-0.35,6.49-0.02
	c2.88,0.45,4.77,2.05,5.48,4.88c0.38,1.54,1.18,3.63-1.14,4.02c-2,0.33-4.63,1.42-5.97-1.52c-0.37-0.81-0.34-2.35-1.68-1.74
	c-1.34,0.62-1.05,2.1-0.37,3.13c1.29,1.94,3.37,3.05,5.17,4.45c2.27,1.77,4.31,3.7,4.77,6.74
	C341.06,547.06,337.64,550.91,330.68,550.91z M364.56,548.36c-0.48,1.51-1.45,2.04-2.93,2.03c-3.48-0.02-6.97-0.02-10.46,0.01
	c-2.1,0.03-2.84-0.93-2.78-3.03c0.13-4.13,0.04-8.27,0.04-12.41h0.04c0-3.92,0.06-7.85-0.03-11.77c-0.04-1.95,0.72-2.79,2.67-2.76
	c3.49,0.06,6.97,0.08,10.46,0.01c2-0.04,2.65,0.85,2.68,2.76c0.02,2.05-0.66,3.05-2.83,2.97c-1.36-0.05-2.94-0.51-3.93,0.89
	c-0.74,1.05-0.6,2.32-0.21,3.47c0.5,1.42,1.79,1.42,3.01,1.38c1.99-0.07,3.71-0.05,3.68,2.77c-0.02,2.61-1.41,3.13-3.57,2.93
	c-2.57-0.25-3.42,0.93-3.4,3.46c0.03,2.55,0.72,3.84,3.53,3.81C364.85,544.85,365.46,545.53,364.56,548.36z M389.72,550.4
	c-0.76-0.04-1.53-0.09-2.28,0c-2.67,0.32-3.82-0.88-3.81-3.5c0-1.28,0.03-2.88-1.87-2.82c-1.94,0.06-1.56,1.7-1.67,2.95
	c-0.28,3.28-1.07,3.57-6.19,3.4c-3.08-0.1-2.57-2.09-2.35-3.84c1.01-7.97,2.15-15.93,3.18-23.89c0.21-1.64,1.07-2.26,2.6-2.25
	c1.63,0.02,3.26,0.01,4.89,0.01c6.19,0,6.31-0.02,7.23,6.06c1.06,6.97,1.83,13.99,2.87,20.96
	C392.66,549.75,391.8,550.5,389.72,550.4z M417.69,546.24c-1.63,4.08-5.23,4.47-8.24,4.67c-6.31-0.02-9.37-1.99-10.08-6.12
	c-0.24-1.45-0.79-3.12,1.32-3.8c2.6-0.84,5.87,0.06,6.49,1.85c0.31,0.89,0.12,2.1,1.49,2.15c0.34,0.02,0.86-0.32,1.02-0.63
	c0.51-1.06,0.34-2.13-0.37-3.07c-1.65-2.21-3.88-3.79-6-5.5c-2.38-1.93-3.97-4.2-3.87-7.5c0.17-4.98,2.24-7.4,7.19-8.01
	c6.05-0.75,9.59,0.81,10.77,4.88c0.44,1.51,1.21,3.28-0.94,4.22c-2.15,0.94-5.42-0.03-6.15-1.77c-0.35-0.85-0.35-2.25-1.79-1.54
	c-1.06,0.51-0.86,1.68-0.52,2.62c0.52,1.4,1.84,2.12,2.9,3.03c1.31,1.14,2.83,2.05,4.11,3.21
	C418.31,537.9,419.3,542.23,417.69,546.24z M446.62,542.66c-0.07,4.52-1.71,6.49-5.99,7.71c-2.25,0.63-4.53,0.7-6.79,0.39
	c-4.98-0.66-7.19-3.26-7.23-8.33c-0.02-2.39-0.01-4.78-0.01-7.17c0-2.5-0.05-5,0.01-7.5c0.09-4.03,2.5-6.72,6.47-7.34
	c2.27-0.35,4.54-0.39,6.81,0.02c4.27,0.76,6.67,3.51,6.73,7.88C446.69,533.1,446.7,537.88,446.62,542.66z M473.6,550.29
	c-2.17,0.12-4.37,0.22-6.53,0.02c-1.8-0.16-1.98-1.86-2.11-3.25c-0.31-3.27-1.1-6.38-2.85-9.27c-0.78,2.95,0.12,5.81,0.25,8.68
	c0.11,2.37,0.05,3.96-3.07,4c-2.95,0.04-4.4-0.49-4.3-3.9c0.22-7.51,0.16-15.03,0.02-22.54c-0.05-2.62,0.64-3.69,3.47-3.63
	c5.99,0.13,6.01,0.01,7.21,6.53c0.27,1.43,0.2,2.96,1.36,4.72c0.81-3.14,0.71-5.81,0.31-8.45c-0.32-2.05,0.43-2.85,2.43-2.76
	c1.08,0.06,2.17,0.02,3.26,0.02c1.62-0.01,2.36,0.77,2.36,2.41c-0.02,8.38,0,16.77,0.02,25.15
	C475.43,549.29,474.9,550.22,473.6,550.29z M500.06,550.42c-2.41,0-4.26-0.07-4.13-3.39c0.22-5.32,0.03-10.66,0.09-15.99
	c0.02-1.58-0.19-2.82-1.46-4.06c-1.84-1.79-1.23-4.09,1.05-5.18c0.69-0.33,1.35-0.72,2.06-0.98c4.67-1.69,6.59-0.37,6.59,4.53v10.12
	c0,3.92-0.15,7.84,0.04,11.75C504.47,550.65,502.37,550.41,500.06,550.42z"/>
<path class="st0" d="M270.86,143.95c0-3.7,0.02-7.41,0-11.11c-0.03-5.06,1.58-7.46,6.38-9.3c13.92-5.32,27.87-10.57,41.78-15.93
	c7.61-2.93,14.81-6.82,22.6-9.36c6.07-1.98,11.97-2.4,18.25-0.79c30.84,7.9,62.04,8.19,93.41,3.92c10.68-1.46,21.32-3.1,31.79-5.73
	c3.18-0.8,6.28,0.32,9.23,1.45c9.16,3.49,17.38,8.49,24.48,15.3c3.44,3.3,7.54,5.37,12.17,6.64c9.83,2.7,19.99,4.36,29.1,9.41
	c2.87,1.59,4.24,3.49,4.01,6.72c-0.45,6.52-0.77,13.05-1.24,19.56c-0.15,2.05-0.11,3.89,1.75,5.25c0.82,0.6,1.31,1.65,1.19,2.59
	c-0.59,4.86-0.17,10.26-5.71,12.89c-2.66,1.26-3.06,3.5-2.82,5.99c0.22,2.23-0.79,3.13-2.81,2.7c-1.89-0.39-4.82,1.2-4.98-2.81
	c-0.3-7.5-0.98-14.99-1.39-22.49c-0.12-2.22-0.84-3.85-2.65-5.26c-6.11-4.73-12.54-8.04-20.67-7.3c-4.72,0.43-9.3-0.01-13.61-3.17
	c-2.96-2.17-7.34-1.62-11.12-1.9c-30.91-2.29-61.86-1.6-92.8-1.06c-23.75,0.41-47.49,1.33-71.24,1.92
	c-4.62,0.12-8.69,0.95-12.19,4.37c-4.22,4.12-10.09,3.5-15.36,4.46c-3.74,0.69-7.62,0.31-11.34,1.32
	c-7.19,1.95-11.72,7.15-12.62,14.51c-0.39,3.24-0.68,6.5-1.09,9.74c-0.12,0.96,0.42,2.38-1.3,2.51c-1.34,0.1-2.64,0-3.44-1.34
	c-0.06-0.09-0.16-0.18-0.17-0.28c-0.37-4.5-3.52-7.66-5.31-11.46c-1.92-4.08-2.08-8.86-2.17-13.45c-0.06-2.83-0.01-5.66-0.01-8.49
	C270.93,143.95,270.9,143.95,270.86,143.95z"/>
<path class="st0" d="M517.27,102.81c-3.09-1.97-5.39-3.4-7.65-4.88c-11.02-7.22-22.33-10.56-35.8-6.44
	c-10.87,3.33-22.47,4-33.84,5.21c-2.42,0.26-3.21-0.29-3.15-2.85c0.17-7.62,0.08-15.25,0.05-22.87c-0.02-6.44-3.41-9.81-9.91-9.86
	c-5.88-0.04-11.77-0.04-17.65,0c-6.82,0.04-10.11,3.4-10.14,10.33c-0.03,7.41-0.2,14.82,0.08,22.22c0.13,3.45-1.1,3.87-4.09,3.56
	c-11.83-1.2-23.54-3.08-35.04-6.04c-6.49-1.67-12.66-1.24-18.94,0.75c-5.78,1.84-11.33,4.26-17.17,6.7
	c0.15-2.51,1.04-4.49,1.78-6.48c11.38-30.73,31.45-52.54,64.12-60.44c25.02-6.05,49.85-4.18,73.69,5.66
	c26.17,10.81,42.05,31.18,51.13,57.4C515.56,97.12,516.24,99.51,517.27,102.81z"/>
<path class="st0" d="M15.76,342.76c0.08-13.5,0.27-27,0.82-40.49c0.31-7.67,1.55-15.15,4.16-22.38c0.89-2.48,2.18-4.74,3.69-6.89
	c2.47-3.52,5.8-5.2,10.11-4.48c5.37,0.89,10.8,1.57,16.05,2.97c5.88,1.57,9.64,5.87,11.45,11.58c2.24,7.07,3.75,14.33,3.59,21.81
	c-0.6,27.97-1.23,55.95-1,83.93c0.02,1.87-0.4,2.81-2.52,2.73c-3.48-0.14-6.97-0.15-10.45,0c-2.14,0.09-2.51-0.86-2.49-2.72
	c0.08-9.04-0.01-18.07,0.1-27.11c0.03-2.47-0.62-3.57-3.3-3.43c-3.69,0.19-7.41,0.17-11.1-0.04c-3.07-0.17-3.94,1.07-3.89,4.01
	c0.14,8.71-0.05,17.42,0.07,26.13c0.03,2.4-0.61,3.33-3.11,3.16c-3.04-0.2-6.11-0.21-9.14,0c-2.45,0.17-3.1-0.6-3.09-3.06
	C15.82,373.24,15.76,358,15.76,342.76z M32.19,319.98c-0.27,0-0.54,0-0.81,0c0,5.55,0.09,11.11-0.04,16.66
	c-0.06,2.28,0.78,3.17,3,3.17c3.92-0.01,7.86-0.06,11.76,0.2c2.71,0.18,3.34-0.96,3.36-3.41c0.05-7.08,0.29-14.16,0.45-21.24
	c0.09-4.03,0.3-8.06,0.25-12.08c-0.04-3-1.43-4.89-4.78-4.97c-2.39-0.06-4.77-0.45-7.16-0.69c-4.48-0.45-5.81,0.49-5.97,5.04
	C32.03,308.43,32.19,314.21,32.19,319.98z"/>
<path class="st0" d="M91.68,373.9c0,5.01-0.08,10.02,0.04,15.03c0.05,2.03-0.65,2.68-2.63,2.6c-3.26-0.13-6.55-0.2-9.8,0.02
	c-2.57,0.17-3.07-0.86-3.06-3.2c0.1-28.54,0.11-57.08,1.19-85.61c0.28-7.51,0.4-15.03,0.67-22.54c0.13-3.64,0.63-3.89,4.18-3.22
	c8.34,1.58,16.66,3.41,25.06,4.49c7.83,1.01,12.71,5.26,15.62,12.16c2.21,5.25,3.49,10.8,3.39,16.53
	c-0.16,8.71-0.42,17.43-0.81,26.13c-0.28,6.1-2.48,11.52-7.1,15.64c-1.97,1.75-2.22,3.44-1.46,5.77c3.3,10.25,6.4,20.56,9.82,30.77
	c0.94,2.82,0.02,3.13-2.37,3.06c-3.81-0.11-7.63-0.08-11.44-0.01c-1.58,0.03-2.27-0.59-2.72-2.11c-2.94-10.02-5.97-20.01-8.99-30
	c-0.97-3.2-5.72-5.1-8.61-3.46c-1.19,0.68-0.92,1.88-0.93,2.92c-0.03,5.01-0.01,10.02-0.01,15.03
	C91.7,373.9,91.69,373.9,91.68,373.9z M92.83,321.15c-0.27,0-0.54,0-0.81,0c0,4.56,0.08,9.13-0.04,13.69
	c-0.05,1.94,0.64,2.8,2.58,2.87c3.91,0.13,7.82,0.29,11.73,0.53c2.33,0.15,3.63-1.01,3.71-3.14c0.33-8.58,0.57-17.16,0.7-25.74
	c0.03-2.33-1.28-3.81-3.8-4.06c-3.57-0.37-7.15-0.71-10.68-1.33c-2.79-0.49-3.44,0.75-3.41,3.17
	C92.87,311.81,92.83,316.48,92.83,321.15z"/>
<path class="st0" d="M230.16,351.19c0.97-1.96,0.68-3.16,0.68-4.33c0.01-15.14,0.27-30.28,0.87-45.41c0.11-2.84,0.94-3.93,3.89-3.42
	c2.45,0.43,4.99,0.54,7.49,0.53c3.08-0.01,4.18,1.21,4.04,4.36c-0.97,21.77-0.99,43.55-1,65.34c0,6.75-0.08,13.51,0.03,20.26
	c0.04,2.24-0.58,3.13-2.94,3.02c-3.59-0.17-7.19-0.12-10.78-0.01c-1.79,0.05-2.55-0.54-3.22-2.31
	c-6.05-15.85-12.19-31.67-17.74-47.71c-0.23-0.67-0.19-1.53-1.13-2.04c-0.75,0.93-0.42,2.03-0.43,3.04
	c-0.05,15.25-0.14,30.5-0.06,45.75c0.01,2.57-0.68,3.47-3.28,3.29c-3.15-0.21-6.32-0.16-9.47-0.01c-2.18,0.1-2.79-0.73-2.78-2.83
	c0.13-26.25-0.08-52.5,0.94-78.74c0.17-4.35,0.39-8.71,0.43-13.06c0.02-2.45,0.92-3.29,3.39-2.87c3.76,0.64,7.55,1.12,11.34,1.48
	c2.04,0.19,3.03,1.05,3.57,3.05c3.33,12.52,6.76,25.01,10.9,37.29C226.55,340.77,228.26,345.67,230.16,351.19z"/>
<path class="st0" d="M752.38,331.8c-0.5-14.08-0.99-27.03-1.4-39.97c-0.16-5.15,0.2-5.45,5.31-6.09c2.59-0.33,5.17-0.71,7.74-1.17
	c2.11-0.38,3.01,0.31,3,2.54c-0.03,5.01,0.13,10.02,0.19,15.02c0.24,21.77,0.49,43.54,0.69,65.31c0.03,3.69,0.19,7.36-0.71,11.04
	c-1.62,6.64-8.61,13.57-17.34,13.06c-4.45-0.26-8.94-0.24-13.4-0.01c-11.83,0.62-18.48-9.41-18.52-18.05
	c-0.07-16.22-0.29-32.45-0.67-48.67c-0.23-10.01-0.8-20.01-1.36-30.01c-0.15-2.61,0.59-3.79,3.33-3.92
	c2.93-0.13,5.86-0.55,8.74-1.07c2.35-0.43,3.42,0.15,3.51,2.71c0.49,14.25,1.21,28.49,1.59,42.74c0.31,11.97,0.23,23.95,0.36,35.93
	c0.04,4.13,0.73,4.81,4.72,4.84c3.16,0.03,6.32,0.02,9.48-0.02c3.99-0.05,4.72-0.74,4.73-4.85
	C752.4,357.68,752.38,344.17,752.38,331.8z"/>
<path class="st0" d="M705.79,347.73c0,8.16,0.05,16.32-0.01,24.49c-0.06,8.61-3.4,15.14-11.83,18.46c-1.04,0.41-2.02,0.75-3.11,0.76
	c-6.64,0.02-13.32,0.46-19.91-0.1c-8.16-0.69-14.87-7.78-15.09-17.63c-0.27-12.4-0.46-24.81-0.7-37.21
	c-0.11-5.76-0.39-11.52-0.76-17.28c-0.58-9.14,2.57-16.63,10.73-21.52c1.42-0.85,2.97-1.36,4.62-1.53
	c5.41-0.56,10.83-1.14,16.25-1.63c6.45-0.58,10.96,2.36,14.39,7.68c3.79,5.88,4.45,12.45,4.61,19.1c0.22,8.81,0.05,17.62,0.05,26.43
	C705.28,347.72,705.53,347.73,705.79,347.73z M690.22,347.4c-0.14,0-0.29,0-0.43,0c0-4.68,0.13-9.36-0.03-14.03
	c-0.19-5.43,0.04-10.88-0.83-16.28c-0.36-2.27-1.15-4-3.89-3.83c-3.69,0.23-7.38,0.46-11.08,0.67c-3,0.17-4.27,1.79-4.02,4.73
	c0.15,1.73,0.33,3.47,0.36,5.2c0.34,15.98,0.63,31.97,0.96,47.95c0.07,3.6,0.82,4.31,4.52,4.35c3.16,0.04,6.31,0.03,9.47,0
	c4.23-0.04,4.93-0.7,4.95-4.95C690.25,363.28,690.22,355.34,690.22,347.4z"/>
<path class="st0" d="M356.56,348.95c0-13.06,0.09-26.11-0.07-39.17c-0.03-2.71,0.86-3.33,3.34-3.32
	c10.02,0.03,20.03,0.43,30.01,1.28c9.06,0.77,14.91,6.86,15.53,15.98c0.3,4.45,0.29,8.92,0.37,13.38c0.06,3.2-1.17,5.99-3.28,8.3
	c-1.42,1.55-1.3,2.66,0.06,4.17c2.81,3.12,4.05,6.85,3.94,11.09c-0.11,4.46,0.19,8.93-0.05,13.38c-0.56,10.08-5.78,14.25-12.8,17.09
	c-1.15,0.47-2.58,0.33-3.88,0.34c-9.8,0.03-19.6-0.08-29.39,0.09c-2.76,0.05-3.21-1.02-3.2-3.44c0.09-13.06,0.04-26.12,0.04-39.18
	C356.98,348.95,356.77,348.95,356.56,348.95z M391.06,365.96c-0.02,0-0.05,0-0.07,0c0-2.39,0.03-4.78-0.01-7.17
	c-0.04-2.48-1.31-3.86-3.82-3.9c-4.02-0.07-8.04-0.05-12.06-0.13c-1.64-0.03-2.44,0.66-2.44,2.29c0.01,5.65,0.03,11.3,0.04,16.94
	c0,1.43,0.56,2.22,2.12,2.21c4.24-0.04,8.48,0.02,12.71-0.03c2.38-0.03,3.57-1.28,3.54-3.7
	C391.04,370.3,391.06,368.13,391.06,365.96z M372.45,330.03c0,2.61,0.01,5.22,0,7.83c-0.01,1.73,0.73,2.58,2.56,2.56
	c3.81-0.04,7.62,0.04,11.43,0.07c2.74,0.03,3.98-1.37,3.92-4.05c-0.06-2.72-0.1-5.44-0.18-8.16c-0.24-7.89-0.24-7.89-8.31-7.98
	C372.12,320.2,372.12,320.2,372.45,330.03z"/>
<path class="st0" d="M259.57,353.47c0-11,0.02-21.99-0.01-32.99c-0.01-3.43,0.8-6.64,2-9.85c2.45-6.54,7.52-9.23,14.01-9.16
	c5.86,0.07,11.76,0.61,17.56,1.45c8.56,1.24,14.67,8.02,14.99,16.88c0.36,10.11,0.18,20.25,0.19,30.37
	c0.02,12.74-0.06,25.48,0.05,38.22c0.02,2.45-0.71,3.29-3.15,3.15c-3.04-0.18-6.11-0.22-9.14,0.01c-2.73,0.21-3.24-0.93-3.2-3.38
	c0.14-8.16-0.09-16.34,0.15-24.5c0.09-3.16-1.06-3.98-3.95-3.85c-3.7,0.17-7.41,0.11-11.11-0.01c-2.4-0.08-3.26,0.85-3.23,3.25
	c0.1,8.38-0.06,16.77,0.08,25.15c0.05,2.57-0.67,3.51-3.29,3.32c-3.04-0.21-6.11-0.21-9.14,0c-2.49,0.17-3.13-0.71-3.1-3.13
	c0.12-11.65,0.05-23.3,0.05-34.95C259.39,353.47,259.48,353.47,259.57,353.47z M292.95,331.55c0.03,0,0.05,0,0.08,0
	c0-3.27-0.08-6.53,0.02-9.8c0.08-2.73-1.15-4.04-3.83-4.17c-3.26-0.16-6.53-0.26-9.78-0.59c-3.09-0.31-4.5,0.99-4.52,4.01
	c-0.04,6.86-0.06,13.72-0.14,20.57c-0.02,1.85,0.6,2.86,2.61,2.86c4.36-0.02,8.71,0.02,13.07,0.11c1.83,0.04,2.54-0.76,2.51-2.55
	C292.92,338.52,292.95,335.03,292.95,331.55z"/>
<path class="st0" d="M585.53,356.9c0,10.45-0.09,20.91,0.06,31.36c0.04,2.67-0.86,3.42-3.38,3.28c-3.15-0.18-6.32-0.16-9.47,0
	c-2.22,0.11-2.73-0.76-2.72-2.85c0.06-8.28-0.13-16.55-0.06-24.83c0.02-2.8-0.89-3.95-3.79-3.78c-3.58,0.21-7.19,0.2-10.78,0.06
	c-2.76-0.11-3.58,1.06-3.53,3.69c0.14,8.17,0.02,16.34,0.17,24.5c0.04,2.37-0.57,3.37-3.09,3.21c-3.04-0.19-6.11-0.19-9.15,0
	c-2.51,0.15-3.39-0.59-3.36-3.25c0.19-18.4-0.16-36.81-0.73-55.2c-0.09-3.04-0.06-6.08-0.5-9.12c-1.36-9.37,5.11-17.64,14.61-18.55
	c5.42-0.52,10.86-0.84,16.31-0.97c8.54-0.22,15.86,5.88,17.33,14.31c1.81,10.35,1.1,20.86,1.73,31.28c0.14,2.28,0.02,4.57,0.02,6.86
	C585.3,356.9,585.42,356.9,585.53,356.9z M551.15,332.37c0.1,0,0.19,0,0.29,0c0,3.26,0.05,6.53-0.02,9.79
	c-0.04,2.1,0.9,2.92,2.96,2.88c4.24-0.08,8.49-0.08,12.74-0.03c1.63,0.02,2.47-0.55,2.37-2.26c-0.39-6.62,0.03-13.28-0.89-19.88
	c-0.35-2.5-1.6-3.69-4.11-3.6c-3.48,0.12-6.96,0.26-10.44,0.33c-2.67,0.06-3.65,1.4-3.42,3.98
	C550.88,326.5,550.98,329.44,551.15,332.37z"/>
<path class="st0" d="M435.93,308.41c6.39,0.06,12.84-1.38,19.18,0.5c7.37,2.18,11.88,7.84,12.2,15.52
	c0.21,5.01,0.44,10.02,0.49,15.02c0.05,6.17-1.68,11.64-6.98,15.4c-1.92,1.36-1.33,2.89-0.74,4.62c3.27,9.58,6.38,19.22,9.76,28.76
	c1.02,2.87,0.09,3.39-2.51,3.29c-3.59-0.13-7.19-0.09-10.79-0.01c-1.74,0.04-2.69-0.39-3.27-2.28c-2.83-9.15-5.86-18.24-8.83-27.34
	c-1.2-3.67-4.88-5.42-8.43-4c-1.65,0.66-1.23,2.15-1.23,3.38c0,8.93-0.06,17.87,0.13,26.8c0.06,2.73-0.73,3.67-3.46,3.47
	c-3.04-0.22-6.11-0.16-9.15-0.01c-2.25,0.11-3.08-0.62-3.02-2.95c0.14-5.44,0.06-10.89,0.02-16.34
	c-0.11-19.94-0.26-39.87-1.46-59.78c-0.18-2.97,0.59-4.21,3.7-4.09C426.33,308.54,431.13,308.41,435.93,308.41z M433.81,331.88
	c0.19,0,0.39,0,0.58,0c0,2.93,0.01,5.86,0,8.8c-0.01,1.75,0.82,2.57,2.6,2.55c3.91-0.06,7.83-0.06,11.74-0.08
	c2.42-0.01,3.65-1.25,3.62-3.63c-0.08-5-0.23-9.99-0.37-14.99c-0.07-2.5-1.28-3.79-3.88-3.73c-3.91,0.1-7.83,0.19-11.74,0.16
	c-2.02-0.02-2.65,0.87-2.58,2.78C433.89,326.45,433.81,329.17,433.81,331.88z"/>
<path class="st0" d="M166.02,391.49c-3.49,0-6.98-0.14-10.46,0.03c-11.07,0.53-17.79-8.72-17.92-16.87
	c-0.35-22.1-0.28-44.21,1.22-66.28c0.33-4.79,2.08-9.33,4.41-13.57c2.81-5.11,7.32-7.01,12.88-6.37c8.44,0.98,16.83,2.27,25.27,3.28
	c2.18,0.26,2.7,1.32,2.64,3.24c-0.15,4.35-0.3,8.71-0.29,13.06c0.01,2.31-0.93,3.11-3.17,2.9c-7.16-0.66-14.32-1.25-21.48-1.83
	c-3.84-0.31-4.94,0.53-5.15,4.44c-0.35,6.52-0.41,13.06-0.75,19.58c-0.13,2.47,0.91,3.28,3.21,3.33c7.3,0.15,14.59,0.48,21.89,0.55
	c2.61,0.03,3.45,1.05,3.3,3.55c-0.19,3.26-0.25,6.53-0.14,9.79c0.08,2.46-0.92,3.22-3.3,3.15c-7.19-0.22-14.38-0.17-21.56-0.44
	c-2.91-0.11-3.84,0.97-3.75,3.78c0.15,4.89-0.02,9.8,0.04,14.7c0.05,3.65,0.84,4.41,4.45,4.44c7.3,0.05,14.6,0.12,21.89,0.02
	c2.55-0.04,3.54,0.85,3.41,3.42c-0.16,3.04-0.16,6.1-0.01,9.14c0.11,2.24-0.58,3.09-2.93,3.01
	C175.18,391.38,170.6,391.49,166.02,391.49z"/>
<path class="st0" d="M612.62,373.27c0,5.12-0.11,10.24,0.05,15.36c0.08,2.39-0.85,3-3.04,2.9c-3.15-0.14-6.33-0.17-9.48,0.01
	c-2.48,0.14-3.12-0.79-3.14-3.19c-0.11-16.56-0.36-33.11-0.59-49.66c-0.15-10.79-1.04-21.54-2.17-32.26
	c-0.31-2.91,0.47-3.96,3.4-3.9c2.82,0.07,5.67-0.16,8.47-0.52c2.39-0.31,3.38,0.52,3.58,2.9c0.85,10.2,1.97,20.39,1.94,30.63
	c-0.01,3.06,0.98,4.21,3.94,3.81c0.64-0.09,1.31-0.02,1.96-0.02c4.52-0.05,5.09-0.25,5.77-4.82c1.44-9.69,2.66-19.41,3.76-29.14
	c0.54-4.81,0.5-4.96,5.37-5.36c2.5-0.2,5-0.47,7.46-0.9c2.64-0.46,3.66,0.42,3.29,3.13c-1.23,9.17-2.31,18.36-3.6,27.52
	c-0.75,5.27-1.45,10.61-5.06,14.96c-0.65,0.78-0.48,1.71,0.29,2.33c6.89,5.61,7.17,13.86,8.57,21.62
	c1.18,6.54,1.96,13.14,3.18,19.67c0.49,2.64-0.34,3.28-2.77,3.18c-3.26-0.14-6.54-0.13-9.8,0c-2.09,0.09-2.73-0.71-3.04-2.75
	c-1.51-9.9-3.28-19.77-4.81-29.66c-0.52-3.32-2.18-4.66-5.5-4.58c-9.81,0.25-8.25-1.24-8.22,8.28c0.01,3.49,0,6.97,0,10.46
	C612.49,373.27,612.56,373.27,612.62,373.27z"/>
<path class="st0" d="M791.89,348.9c0-13.07,0.02-26.14-0.01-39.21c-0.01-4-0.35-4.27-4.4-3.92c-3.47,0.3-6.94,0.65-10.41,1.05
	c-2.11,0.25-3.07-0.65-3.09-2.71c-0.07-6.1-0.15-12.2-0.22-18.3c-0.02-1.63,0.62-2.62,2.41-2.87c12.28-1.73,24.56-3.52,36.83-5.29
	c3.34-0.48,6.7-0.85,10.02-1.44c2.28-0.41,2.92,0.52,2.88,2.61c-0.11,6.75-0.16,13.51-0.2,20.26c-0.01,2.14-1.01,3.16-3.14,3.33
	c-3.69,0.29-7.37,0.81-11.07,0.99c-2.77,0.13-3.82,1.36-3.78,4.08c0.11,7.84,0.11,15.68,0.1,23.52c-0.01,18.95-0.1,37.91,0,56.86
	c0.02,2.84-0.67,3.95-3.63,3.69c-2.81-0.25-5.68-0.25-8.49,0c-3.04,0.27-3.61-1-3.58-3.76c0.13-12.96,0.06-25.92,0.06-38.89
	C792.08,348.9,791.98,348.9,791.89,348.9z"/>
<path class="st0" d="M448.96,440.26c0-3.02,0-5.93,0-8.84c0.01-8.6,0.09-17.21-0.03-25.81c-0.04-2.47,0.76-3.37,3.19-3.1
	c3.09,0.35,7.05-1.33,9.08,0.79c1.88,1.96,0.55,5.83,0.55,8.85c-0.02,20.15-0.12,40.29-0.21,60.44c-0.02,4.62-0.05,4.73-4.47,4.33
	c-10.93-0.99-8.05,0.73-11.69-9.13c-4.07-11.02-8.29-22-12.46-32.99c-0.19-0.49-0.49-0.93-0.83-1.55c-1.29,0.88-0.83,2.04-0.84,2.99
	c-0.06,11.87-0.15,23.74-0.05,35.61c0.02,2.94-0.83,4.05-3.91,3.91c-10.29-0.47-8.72,1.16-8.71-9.02
	c0.02-20.26,0.16-40.51,0.11-60.77c-0.01-2.72,0.73-3.69,3.47-3.49c3.57,0.26,7.94-1.01,10.52,0.63c2.4,1.53,2.99,5.99,4.26,9.21
	c3.55,9.01,7.04,18.04,10.55,27.06C447.65,439.78,447.8,440.2,448.96,440.26z"/>
<path class="st0" d="M479.46,347.69c0-8.16,0.09-16.32-0.02-24.48c-0.12-8.66,5.24-14.98,13.84-15.43
	c9.02-0.47,18.07-0.47,27.1-0.72c1.75-0.05,2.67,0.69,2.82,2.4c0.24,2.71,0.44,5.42,0.67,8.13c0.2,2.44-1.43,2.55-3.19,2.55
	c-7.08,0.01-14.16,0.02-21.24,0.07c-4.19,0.03-4.76,0.67-4.57,4.76c0.17,3.81,0.48,7.62,0.38,11.42c-0.09,3.23,1.25,4.12,4.29,4.02
	c6.96-0.23,13.94-0.1,20.9-0.32c2.75-0.09,3.75,0.94,3.66,3.58c-0.08,2.5-0.09,5.02,0.17,7.5c0.3,2.87-0.77,3.92-3.64,3.88
	c-6.75-0.09-13.5,0.01-20.25,0.07c-4.38,0.04-4.5,0.19-4.47,4.69c0.02,3.81,0.04,7.62,0.08,11.43c0.05,4.34,0.66,4.96,4.9,4.97
	c6.97,0.02,13.94,0.09,20.91-0.05c2.88-0.06,4.25,0.76,4.03,3.88c-0.22,3.03-0.1,6.09-0.02,9.14c0.04,1.67-0.6,2.33-2.29,2.32
	c-9.47-0.06-19,0.53-28.41-0.27c-7.63-0.65-13.89-7.03-14.46-16.77c-0.26-4.45-0.17-8.92-0.2-13.39c-0.03-4.46-0.01-8.92-0.01-13.39
	C480.13,347.69,479.8,347.69,479.46,347.69z"/>
<path class="st0" d="M530.89,402.52c3.43,0.25,7.26-0.49,10.92,1.97c4.14,2.78,6.64,6.25,7.13,11.1c0.29,2.91,0.17,5.87,0.23,8.81
	c0.04,1.89-0.77,2.78-2.77,2.68c-2.39-0.12-4.8-0.15-7.19-0.02c-2.1,0.12-2.67-0.9-2.63-2.75c0.05-2.18,0.33-4.42-0.05-6.52
	c-1.02-5.61-5.58-2.34-8.51-3.05c-2.41-0.58-3.28,0.82-3.57,3.32c-0.76,6.52,1.4,11.18,7.42,14.12c2.72,1.33,5.14,3.28,7.75,4.86
	c7.52,4.55,10.88,11.37,10.81,19.95c-0.06,7.52-0.2,15.04-2.97,22.22c-0.71,1.85-1.68,3.55-2.86,5.12
	c-2.01,2.68-4.63,3.84-8.01,3.18c-3.53-0.68-7.05-1.43-10.6-1.91c-7.9-1.07-11.83-6.25-14.1-13.24c-1.92-5.94-1.46-12.06-1.29-18.15
	c0.04-1.6,0.87-2.4,2.53-2.18c0.11,0.01,0.22,0.01,0.33,0.02c11.45,0.69,9.65-1.41,9.67,9.85c0.01,6-0.02,6.04,6.06,6.78
	c8.13,0.98,7.77,0.95,8.37-7.33c0.48-6.61-2.11-10.95-7.39-14.47c-4.25-2.83-8.18-6.15-12.25-9.24c-3-2.28-4.88-5.26-5.53-8.96
	c-0.84-4.76-0.78-9.55-0.1-14.31c0.85-5.94,7.27-12.62,14.61-11.86C528.08,402.63,529.29,402.52,530.89,402.52z"/>
<path class="st0" d="M279.71,442.82c0-8.06,0.13-16.12-0.04-24.17c-0.15-7.27,3.31-12.16,9.45-15.51c1.31-0.72,2.76-0.59,4.15-0.6
	c6.64-0.04,13.29,0.06,19.93-0.07c2.33-0.05,2.95,0.77,2.96,3.02c0.03,9.1,0.1,9.1-9.06,9.12c-3.81,0.01-7.63,0.06-11.44-0.01
	c-2.37-0.04-3.38,1.1-3.39,3.36c-0.01,3.92,0.04,7.84-0.08,11.76c-0.07,2.27,0.84,3.08,3.1,3.01c5.55-0.18,11.11-0.11,16.66-0.28
	c2.37-0.08,3.45,0.73,3.32,3.18c-0.12,2.17-0.1,4.36-0.03,6.53c0.08,2.49-1.06,3.49-3.53,3.54c-5.44,0.12-10.88,0.5-16.32,0.63
	c-2.25,0.05-3.41,0.74-3.4,3.21c0.01,5.23-0.22,10.45-0.25,15.68c-0.02,3.6,0.78,4.19,4.27,3.83c5.42-0.56,10.85-0.96,16.26-1.57
	c2.48-0.28,3.41,0.73,3.33,3.1c-0.13,3.59-0.23,7.18-0.26,10.78c-0.02,1.85-0.87,2.77-2.65,3.1c-7.26,1.36-14.52,2.78-21.78,4.16
	c-3.86,0.73-6.24-1.46-8-4.39c-3.36-5.59-4.14-11.85-4.17-18.23c-0.04-7.72-0.01-15.45-0.01-23.17
	C279.05,442.82,279.38,442.82,279.71,442.82z"/>
<path class="st0" d="M345.06,451.04c1.44-6.83,2.69-12.97,4.02-19.09c1.96-9.04,4-18.06,5.91-27.11c0.36-1.7,1.08-2.41,2.83-2.34
	c2.72,0.1,5.45,0.07,8.17,0.02c2-0.04,2.39,0.8,1.94,2.64c-5.09,20.83-9.56,41.79-13.71,62.82c-0.55,2.78-1.15,5.54-1.6,8.34
	c-0.31,1.93-1.31,2.78-3.25,2.95c-3.36,0.3-6.72,0.69-10.04,1.26c-2.3,0.4-3.41-0.17-3.73-2.64c-2.21-16.73-5.15-33.33-8.74-49.82
	c-1.64-7.55-3.34-15.08-5.13-22.59c-0.5-2.09-0.21-2.93,2.19-2.99c10.13-0.26,10.17-0.34,12.28,9.66
	c2.47,11.71,4.85,23.45,7.28,35.17C343.69,448.34,343.65,449.47,345.06,451.04z"/>
<path class="st0" d="M372.77,439c0-6.97,0.07-13.94-0.02-20.91c-0.09-7.17,3.62-11.87,9.64-15.03c0.99-0.52,2.33-0.49,3.51-0.5
	c6.86-0.05,13.73,0.04,20.59-0.08c2.14-0.04,2.97,0.67,2.83,2.81c-0.13,2.06-0.14,4.14-0.01,6.2c0.14,2.31-0.9,3.08-3.1,3.05
	c-5.67-0.07-11.33,0.06-17-0.06c-2.81-0.06-3.97,0.99-3.86,3.83c0.14,3.37,0.16,6.76-0.01,10.13c-0.13,2.53,0.94,3.18,3.27,3.12
	c5.34-0.13,10.68,0.04,16.01-0.12c2.85-0.09,3.85,0.95,3.77,3.8c-0.29,9.79,1.37,8.37-8.49,8.59c-3.7,0.08-7.41,0.26-11.11,0.11
	c-2.79-0.11-3.61,1.01-3.5,3.64c0.16,3.59,0,7.19,0.01,10.78c0.01,3.89,0.36,4.25,4.37,4.19c5.12-0.08,10.25-0.06,15.36-0.38
	c3.24-0.2,4.35,1.01,4.06,4.12c-0.2,2.16-0.11,4.35-0.07,6.53c0.03,1.9-0.83,2.81-2.73,2.85c-7.3,0.17-14.6,0.52-21.89,0.49
	c-5.05-0.03-9.06-3.88-10.76-9.49c-1.16-3.83-1.03-7.74-1.02-11.66c0.02-5.34,0.01-10.67,0.01-16.01
	C372.68,439,372.72,439,372.77,439z"/>
<path class="st0" d="M492.7,447.66c0,9.58,0.02,19.15-0.01,28.73c-0.01,3.77-0.32,4-3.93,3.47c-0.86-0.13-1.72-0.26-2.59-0.38
	c-6.26-0.88-6.08,0.3-6.02-7.16c0.15-17.96,0.18-35.92,0.41-53.87c0.04-2.97-0.77-4.19-3.85-3.91c-2.59,0.23-5.22-0.02-7.83,0.05
	c-2.13,0.06-2.92-0.86-2.79-2.96c0.13-2.17,0.13-4.36-0.02-6.53c-0.14-2.03,0.67-2.63,2.63-2.62c12.09,0.06,24.17,0.06,36.26,0
	c1.82-0.01,2.56,0.58,2.49,2.44c-0.41,11.82,1.99,9.49-9.07,9.69c-0.65,0.01-1.31,0.06-1.96-0.01c-2.56-0.31-3.42,0.76-3.39,3.34
	c0.12,9.9,0.05,19.81,0.05,29.71C492.95,447.66,492.82,447.66,492.7,447.66z"/>
<path class="st0" d="M438.02,535.24c0,2.61,0.04,5.23-0.02,7.84c-0.02,0.99-0.25,2.08-1.61,1.99c-1.09-0.07-1.4-1.01-1.41-1.9
	c-0.05-5.12-0.05-10.24-0.03-15.36c0-1.06,0.39-2.04,1.66-1.98c1.08,0.05,1.4,0.99,1.41,1.89c0.05,2.5,0.02,5.01,0.02,7.51
	C438.04,535.24,438.03,535.24,438.02,535.24z"/>
<path class="st0" d="M383.57,538.6h-3.34c-0.37,0-0.64-0.34-0.56-0.69l1.79-8.21c0.09-0.43,0.71-0.44,0.82-0.01l2.03,7.96
	C384.43,538.14,384.07,538.6,383.57,538.6z"/>
</svg>
