<?xml version="1.0" encoding="utf-8"?>
<!-- Generator: Adobe Illustrator 26.0.0, SVG Export Plug-In . SVG Version: 6.00 Build 0)  -->
<svg version="1.1" id="Capa_1" xmlns="http://www.w3.org/2000/svg" xmlns:xlink="http://www.w3.org/1999/xlink" x="0px" y="0px"
	 viewBox="0 0 100 100" style="enable-background:new 0 0 100 100;" xml:space="preserve">
<style type="text/css">
	.st0{fill:#FFFFFF;}
</style>
<g>
	<path class="st0" d="M24.83,40.37h50.34c1.93,0,3.5-1.57,3.5-3.5s-1.57-3.5-3.5-3.5H24.83c-1.93,0-3.5,1.57-3.5,3.5
		S22.9,40.37,24.83,40.37z"/>
	<path class="st0" d="M75.17,46.5H24.83c-1.93,0-3.5,1.57-3.5,3.5s1.57,3.5,3.5,3.5h50.34c1.93,0,3.5-1.57,3.5-3.5
		S77.1,46.5,75.17,46.5z"/>
	<path class="st0" d="M75.17,59.63H24.83c-1.93,0-3.5,1.57-3.5,3.5s1.57,3.5,3.5,3.5h50.34c1.93,0,3.5-1.57,3.5-3.5
		S77.1,59.63,75.17,59.63z"/>
</g>
</svg>
