<?xml version="1.0" encoding="utf-8"?>
<!-- Generator: Adobe Illustrator 26.0.0, SVG Export Plug-In . SVG Version: 6.00 Build 0)  -->
<svg version="1.1" id="Capa_1" xmlns="http://www.w3.org/2000/svg" xmlns:xlink="http://www.w3.org/1999/xlink" x="0px" y="0px"
	 viewBox="0 0 595.28 841.89" style="enable-background:new 0 0 595.28 841.89;" xml:space="preserve">
<style type="text/css">
	.st0{fill:#FFFFFF;}
</style>
<path class="st0" d="M427.38,283.74c-5.41,15.23-25.09,201.82-22.75,211.57c12.29,3.15,46.9,2.43,54.68-1.21
	c1.59-3.77,1.32-7.91,1.64-11.97c1.25-15.94,2.45-31.88,3.8-47.8c0.37-4.39,0.68-9.15,7.64-9.33
	c15.07,22.79,24.57,48.93,41.28,72.01c17.57-0.86,35.17,1.9,53.13-1.79c5.04-65.89,11.14-129.81,15.26-195.48
	c0.82-11.16-3.18-15.92-14.57-16.36c-11.51-0.44-23.05-0.1-34.58-0.04c-2.25,0.01-4.44,0.45-6.24,2.01
	c-3.04,2.8-2.97,6.65-3.41,10.31c-2.38,19.95-3.57,39.99-4.47,60.05c-0.21,4.6,0.84,9.92-4.56,12.69c-5.87,0.38-6.44-4.22-7.78-7.94
	c-7.55-20.96-15.06-41.93-22.55-62.9c-2.34-6.57-5.52-12.91-13.14-13.68C456.38,282.41,441.95,282.72,427.38,283.74z"/>
<path class="st0" d="M405.17,284.55c-52.41-6.25-99.54,3.93-143.71,33.96c3.25,19.09,14.14,36.16,20.06,55.88
	c16.21-2.46,26.55-14.94,40.04-18.85c5.81,1.84,5.99,5.53,5.3,10.03c-2.92,19.11-5.63,38.26-8.47,57.38
	c-0.48,3.22-0.16,6.83-3.95,9.22c-5.96,0.1-7.06-4.55-8.76-9.22c-3.89-10.72-6.71-21.93-12.79-31.55
	c-18.62,1.75-20.48,0.54-27.16-17.21c-5.5-14.61-11.15-29.16-16.5-43.83c-6.51-17.86-6.4-17.89,8.67-29.68
	c0.54-0.42,0.77-1.24,1.13-1.88c-2.18-10.96-5.59-14.76-15.48-15.57c-7.4-0.6-14.88-0.32-22.32-0.26
	c-4.44,0.03-9.01-0.14-12.57,3.19c-7.29,10.24-7.37,24.08-16,33.53c-6.79-3.36-6.95-3.25-9.46-6.87
	c-10.65-15.32-25.82-22.94-43.71-26.23c-29.18-5.36-58.63-3.17-88-3.42c-3.05-0.03-5.94,0.59-8.35,3.6
	c-2.43,3.56-1.71,8.16-1.68,12.55c0.42,61.78,0.9,123.56,1.41,185.34c0.03,3.66-0.45,7.52,2.28,10.59
	c11.1,2.92,47.74,2.5,56.48-0.85c3.52-15.2-1.91-31.53,3.06-46.41c8.72-5.61,18.35-3.15,26.39-6.24c4.04-3.04,5.46-7.27,7.08-11.46
	c5.52-14.2,11.21-28.33,16.72-42.53c2.04-5.26,5.2-8.02,11.35-5.98c6.33,5.96,2.32,12.47,0.21,18.46
	c-9.85,28.07-20.07,56-30.08,84.02c-1.32,3.68-3.74,7.39-0.76,12.59c18.11,0.23,36.53,0.91,54.73-0.13
	c1.76-2.74,2.52-3.61,2.93-4.62c5.38-13.07,5.99-13.57,19.4-13.62c13.4-0.05,26.8,0.02,40.2,0.06c4.87,0.01,9.75,0.04,13.47,3.98
	c3.23,4.05,3.22,10.06,8.87,13.8c35.02,0,70.95,0,107.66,0c3.64-24.17,4.85-47.94,8.52-71.31c3.64-23.2,5.36-46.59,7.75-69.83
	C401.56,331.84,406.61,308.47,405.17,284.55z M132.25,375.87c-4.46,10.44-13.98,13.37-26.75,14.61c-4.18-17.56-2.7-33.64-1.13-49.77
	c11.14-2.89,18.82-0.39,24.76,6.79C136.29,356.15,136.39,366.18,132.25,375.87z M217.97,430.76c0.78-12.35,6.56-22.97,13.31-35.41
	c9.42,11.37,12.44,22.98,14.63,34.71C236.4,435.73,228.73,435.91,217.97,430.76z"/>
</svg>
